<?xml version="1.0" encoding="UTF-8" standalone="no"?>
<!-- Created with Inkscape (http://www.inkscape.org/) -->

<svg
   width="210mm"
   height="297mm"
   viewBox="0 0 210 297"
   version="1.1"
   id="svg1"
   xmlns="http://www.w3.org/2000/svg"
   xmlns:svg="http://www.w3.org/2000/svg">
  <defs
     id="defs1" />
  <g
     id="layer1">
    <ellipse
       style="fill:#ffffff;fill-opacity:1;stroke:#000000;stroke-width:1.06848;stroke-dasharray:none;stroke-opacity:1"
       id="ellipse1"
       transform="matrix(0.99546794,-0.09509776,0.0955999,0.99541984,0,0)"
       ry="27.547949"
       rx="78.217735"
       cy="134.23672"
       cx="81.815681" />
    <ellipse
       style="fill:#562c2c;fill-opacity:1;stroke:#000000;stroke-width:0.899598;stroke-dasharray:none;stroke-opacity:1"
       id="path7"
       transform="matrix(0.99382247,-0.11098151,0.18466824,0.98280092,0,0)"
       ry="19.692223"
       rx="77.564827"
       cy="137.31612"
       cx="69.262222" />
    <path
       style="fill:#ffffff;fill-opacity:1;stroke:#000000;stroke-width:1.11366;stroke-dasharray:none;stroke-opacity:1"
       d="m 18.362474,138.42316 c 19.243486,29.25462 44.904771,39.69562 69.515186,39.40003 51.36767,-0.61694 70.80342,-26.67483 83.7598,-55.28042"
       id="path9" />
    <path
       style="fill:#562c2c;fill-opacity:1;stroke:#000000;stroke-width:1.14217;stroke-dasharray:none;stroke-opacity:1"
       d="M 17.313177,136.77977 C 75.017502,171.24544 144.34357,149.79462 171.74406,122.34012"
       id="path10" />
    <path
       style="fill:#fe0000;fill-opacity:1;stroke:#000000;stroke-width:1.032;stroke-dasharray:none;stroke-opacity:1"
       d="m 20.422396,89.878815 3.029391,42.941605 c 2.089361,11.97384 17.447441,6.04718 17.32535,0.36102 l -0.663716,-29.20242 18.176334,28.8414 c 4.042902,6.83628 15.818553,8.51929 17.418987,-0.64091 L 71.164659,91.160639 c -2.187586,-12.215762 -18.44806,-12.565254 -17.418987,0 L 55.260371,105.9018 39.356075,89.237889 C 32.85094,82.529082 21.172488,76.8147 20.422396,89.878815 Z"
       id="path1" />
    <path
       style="fill:#f9c80e;fill-opacity:1;stroke:#000000;stroke-width:1.032;stroke-dasharray:none;stroke-opacity:1"
       d="m 83.957817,106.35725 c 0,0 -1.077126,23.02361 3.769931,28.40539 4.84707,5.38179 16.860872,7.07008 14.541192,-0.78903 l -8.617002,-29.19445 c 6.894772,-4.2757 7.658572,-9.193028 7.539872,-14.202686 -1.822282,-4.864818 -3.706202,-9.690141 -13.464062,-9.468467 -6.068469,1.796473 -12.962864,2.98793 -13.175632,9.073945 1.164825,6.193655 -0.346072,13.476248 9.405701,16.175298 z"
       id="path2" />
    <path
       style="fill:#fe0000;fill-opacity:1;stroke:#000000;stroke-width:1.032;stroke-dasharray:none;stroke-opacity:1"
       d="m 40.844792,71.18664 c 5.742781,1.263712 12.389638,-4.465439 14.587426,-9.919449 1.411508,-3.502786 0.752973,-8.911006 -2.333987,-11.086446 -3.530073,-2.487711 -10.910466,-2.114589 -12.836935,1.750491 -2.486051,4.987772 8.168957,14.587426 8.168957,14.587426 20.422396,4.278978 59.437397,5.746534 61.267187,12.836935 4.47421,17.337471 1.41676,33.766973 1e-5,51.347743 -0.4762,5.90923 16.84698,7.93595 16.92141,0 0.12382,-13.20288 0.4094,-40.441724 -3.50098,-53.098234 -2.41416,-7.813772 24.50687,1.166995 24.50687,1.166995 4.74291,0.225853 4.67525,-13.071641 -1.16699,-13.420431 l -39.0943,-2.333988 c 0,0 -39.187139,0.361573 -56.01572,-4.084481 -1.606672,-0.424477 -4.432191,-0.105503 -4.667975,-1.750491 -0.275965,-1.925313 2.985733,-4.477225 4.667975,-3.500983 1.356267,0.787072 -0.06619,3.187661 -0.583496,4.667978 -0.836428,2.393514 -12.051518,2.145467 -13.420434,7.001965 -0.615373,2.183158 1.285753,5.347504 3.500982,5.83497 z"
       id="path3" />
    <path
       style="fill:#f9c80e;fill-opacity:1;stroke:#000000;stroke-width:1.032;stroke-dasharray:none;stroke-opacity:1"
       d="m 150.83399,102.40373 c -2.14391,1.10063 -4.64239,5.83065 -5.54322,9.33595 -1.76301,6.86021 5.23927,6.40618 6.71021,6.12672 7.10566,-1.34998 6.73222,-1.47297 8.16896,-2.33399 2.60836,-1.56316 4.85398,2.27846 4.95972,6.12673 -1.08747,6.01047 -6.62352,7.25461 -11.37819,9.33595 -5.30092,0.74996 -10.39848,0.41533 -14.87917,-3.20924 -3.57016,-2.72488 -5.30999,-7.68683 -6.41847,-13.42043 -0.75256,-5.7856 -1.17557,-11.35149 -0.29175,-16.046167 1.42324,-5.688489 3.89742,-10.713219 10.50295,-13.128683 5.26466,-2.10369 10.64231,-3.900697 17.79666,-0.875247 10.86654,3.904449 13.98653,11.05704 12.83693,18.088407 -1.1364,6.95061 -11.21194,5.41221 -15.46267,1.80055 -3.16251,-2.68705 -3.97372,-3.35517 -7.00196,-1.80055 z"
       id="path4" />
    <path
       style="fill:#1a1a1a;stroke:#000000;stroke-width:1.032;stroke-dasharray:none;stroke-opacity:1"
       d="m 153.48523,90.048799 c -3.73612,1.403348 -4.92249,4.708907 -2.68186,5.157432 5.57351,1.115695 7.80673,3.576438 11.6558,4.744839 3.00123,0.91104 3.81277,-3.175289 2.57872,-5.673177 -1.72521,-3.492074 -4.09404,-7.030672 -11.55266,-4.229094 z"
       id="path5" />
    <path
       style="fill:#1a1a1a;stroke:#000000;stroke-width:1.032;stroke-dasharray:none;stroke-opacity:1"
       d="m 82.418958,88.253929 c 3.615115,-4.305066 8.928801,-1.852564 11.961689,0.72937 3.955379,3.36726 1.310913,6.936432 0.291748,9.773575 -1.370533,3.815276 -7.407377,5.340996 -11.66994,1.312866 -2.698157,-2.549766 -4.25456,-7.444119 -0.583497,-11.815811 z"
       id="path6" />
    <path
       style="fill:#fe0000;fill-opacity:1;stroke:#000000;stroke-width:0.609;stroke-dasharray:none;stroke-opacity:1"
       d="m 23.002155,145.02704 c 0,0 36.151039,13.22718 57.132744,14.56774 17.261554,1.10287 33.800581,-2.45457 49.994751,-8.66449 12.68895,-4.86579 37.38381,-20.13776 37.38381,-20.13776 l -6.28045,11.30236 c 0,0 -19.85341,11.75918 -28.23593,15.14516 -16.35655,6.60696 -37.309945,10.30095 -54.904421,9.02703 -18.686102,-1.35294 -47.870097,-13.40074 -47.870097,-13.40074 z"
       id="path12" />
    <path
       style="fill:#fe0000;fill-opacity:1;stroke:none;stroke-width:1.032;stroke-dasharray:none;stroke-opacity:1"
       d="m 45.524554,61.642093 -1.153877,-0.198816 -1.143341,0.329438 c 1.300837,1.989642 3.129276,3.602425 4.842028,5.297842 l 2.226273,0.347548 0.936377,-0.878498 3.970835,-6.215206 0.245961,-1.010192 -4.149616,-0.927076 -0.652158,0.945679 -1.1872,1.404481 z"
       id="path8" />
    <path
       style="fill:none;stroke:#ffffff;stroke-width:1.532;stroke-linecap:round;stroke-dasharray:none;stroke-opacity:1"
       d="m 31.252932,86.002878 c 0,0 -5.290245,-1.745104 -6.97271,-0.187088 -1.687436,1.562618 -0.996889,8.375875 -0.996889,8.375875"
       id="path11" />
    <path
       style="fill:none;stroke:#ffffff;stroke-width:1.532;stroke-linecap:round;stroke-dasharray:none;stroke-opacity:1"
       d="m 65.484375,85.328124 c 0,0 -6.884486,-1.162608 -8.202084,0.79375 -1.108776,1.6463 -0.264583,8.73125 -0.264583,8.73125"
       id="path13" />
    <path
       style="fill:none;stroke:#ffffff;stroke-width:1.532;stroke-linecap:round;stroke-dasharray:none;stroke-opacity:1"
       d="m 47.823437,50.799999 c 0,0 -4.326692,-0.171168 -5.55625,1.5875 -0.822644,1.176647 0.595312,4.630209 0.595312,4.630209"
       id="path14" />
    <path
       style="fill:none;stroke:#ffffff;stroke-width:1.532;stroke-linecap:round;stroke-dasharray:none;stroke-opacity:1"
       d="m 43.391666,62.970833 c 0,0 -3.071748,0.978711 -3.638021,2.38125 -0.436561,1.081273 1.389063,3.63802 1.389063,3.63802"
       id="path15" />
    <path
       style="fill:none;stroke:#ffffff;stroke-width:1.532;stroke-linecap:round;stroke-dasharray:none;stroke-opacity:1"
       d="m 83.067368,84.938255 c 0,0 -4.485536,1.459172 -5.523817,3.499888 -0.96813,1.902835 -0.243833,7.088618 -0.243833,7.088618"
       id="path16" />
    <path
       style="fill:none;stroke:#ffffff;stroke-width:1.532;stroke-linecap:round;stroke-dasharray:none;stroke-opacity:1"
       d="m 147.6375,87.312499 c 0,0 -7.5102,3.109398 -9.525,6.35 -2.16023,3.474512 -1.5875,12.170831 -1.5875,12.170831"
       id="path18" />
    <g
       id="g27"
       transform="rotate(-4.2004762,-366.0794,300.88828)">
      <path
         style="fill:#fe0000;fill-opacity:1;stroke:#000000;stroke-width:1.532;stroke-linecap:round;stroke-dasharray:none;stroke-opacity:1"
         d="m 38.842671,202.21203 c -3.222696,4.14222 -8.195252,10.90174 -12.161311,17.2493 -4.091696,6.54863 -7.550144,13.31342 -8.098367,18.59816 -0.343153,3.30791 2.877949,5.94711 7.220487,7.84596 4.435633,1.93956 9.587944,2.94956 13.512707,3.62743 4.003538,0.69148 7.848652,-1.23703 11.936919,-2.48536 2.480489,-0.75739 5.089579,-3.21533 6.511808,-5.86634 1.418455,-2.64398 1.632919,-5.40438 -0.558182,-6.78091 -2.593198,-1.62914 -5.12547,-3.31999 -7.595381,-5.06721 3.132664,-1.47398 6.186051,-3.03107 9.153705,-4.66661 3.829009,-2.11026 6.194057,-7.80283 3.811294,-11.35536 0,0 -2.616664,-6.61922 -5.130516,-8.25217 -2.526922,-1.64143 -6.29284,-3.63725 -9.704296,-4.57456 -3.452115,-0.94848 -6.844267,-0.91317 -8.898867,1.72767 z"
         id="path19" />
      <path
         style="fill:#ffffff;fill-opacity:1;stroke:#000000;stroke-width:1.532;stroke-linecap:round;stroke-dasharray:none;stroke-opacity:1"
         d="m 99.054666,219.8018 c -5.178289,-5.9116 -16.727838,-7.82539 -23.411522,-3.5081 -9.46529,6.11406 -16.775854,23.94421 -9.141918,34.71709 3.00071,4.23454 9.077658,7.25705 15.689827,8.2235 6.608577,0.96593 13.310117,-0.19093 17.331791,-3.4891 5.042486,-4.13534 6.796116,-11.11096 6.324806,-17.97127 -0.46725,-6.80126 -3.06189,-13.71266 -6.792984,-17.97212 z"
         id="path20" />
      <path
         style="fill:#fe0000;fill-opacity:1;stroke:#000000;stroke-width:1.532;stroke-linecap:round;stroke-dasharray:none;stroke-opacity:1"
         d="m 112.29268,221.4217 c 2.06175,10.39699 4.49346,20.73487 7.27683,31.00617 0.72478,2.67465 6.41711,1.39673 7.69147,-0.75277 2.28445,-3.77914 4.40159,-7.59723 6.3611,-11.44647 1.98128,2.95513 4.0386,5.88052 6.1683,8.77502 1.78959,2.43223 8.35479,2.34434 9.12065,-1.92671 1.86971,-10.42689 3.10703,-20.85562 3.78302,-31.23986 0.11569,-1.77721 -2.94192,-3.16726 -5.91801,-3.53338 -2.98686,-0.36744 -6.00209,0.27397 -6.16545,2.92909 -0.30376,4.93732 -0.72544,9.88042 -1.27067,14.82583 0,0 -4.33923,-3.93655 -6.90592,-4.01385 -1.55764,-0.0469 -3.21582,0.934 -4.18989,2.16852 -2.13225,2.70236 -2.56626,10.12024 -2.56626,10.12024 -1.81307,-6.29899 -3.50635,-12.62238 -5.07616,-18.96866 -0.47956,-1.93876 -2.68664,-2.08461 -4.69068,-1.45273 -2.00057,0.63079 -3.90369,2.07056 -3.61833,3.50956 z"
         id="path21" />
      <path
         style="fill:#fe0000;fill-opacity:1;stroke:#000000;stroke-width:1.41225;stroke-linecap:round;stroke-dasharray:none;stroke-opacity:1"
         d="m 164.8023,198.73409 c 0,0 -1.49931,8.60002 -2.2786,18.29498 -0.76986,9.5776 -0.82879,20.61146 5.1447,24.62006 3.88928,2.60995 10.54043,0.0143 16.0091,-3.44474 5.46229,-3.45503 9.6023,-7.65448 9.6023,-7.65448 3.8944,-1.96338 -0.5705,-13.24572 -4.9074,-10.48089 -3.16265,2.01623 -6.38468,3.96996 -9.66542,5.85121 -0.96961,-10.31239 -2.31282,-20.52969 -3.98696,-30.62604 -0.43808,-2.64198 -3.06459,-2.80192 -5.48572,-1.82631 -2.40625,0.96961 -4.69174,3.10476 -4.432,5.26621 z"
         id="path22" />
      <path
         style="fill:#ffffff;fill-opacity:1;stroke:#000000;stroke-width:1.532;stroke-linecap:round;stroke-dasharray:none;stroke-opacity:1"
         d="m 43.727337,211.95465 c -2.688463,1.3035 -3.439262,5.20772 -2.050224,7.94112 1.492431,2.93685 5.401178,4.62825 8.309306,3.12472 2.714505,-1.40342 4.424817,-5.84741 3.07517,-8.46598 -1.462993,-2.8385 -6.408167,-4.01858 -9.334252,-2.59986 z"
         id="path23" />
      <path
         style="fill:#ffffff;fill-opacity:1;stroke:#000000;stroke-width:1.532;stroke-linecap:round;stroke-dasharray:none;stroke-opacity:1"
         d="m 33.444211,230.98988 c -2.970217,0.8794 -4.738277,5.64748 -3.539712,8.61511 1.589535,3.93569 6.378726,5.1992 10.357603,3.76727 3.263939,-1.17464 5.233689,-5.90867 3.582172,-8.83456 -1.836183,-3.25305 -6.812097,-4.61012 -10.400063,-3.54782 z"
         id="path24" />
      <path
         style="fill:#f9c80e;fill-opacity:1;stroke:#000000;stroke-width:2.16359;stroke-linecap:round;stroke-dasharray:none;stroke-opacity:1"
         d="m 79.121763,233.70286 c -4.093515,2.94965 -5.803792,11.64985 -2.611368,15.98784 2.577583,3.50252 9.061407,3.43834 12.638053,1.04642 3.971715,-2.65611 6.847146,-9.22858 4.749858,-13.35671 -2.453568,-4.8294 -10.53569,-6.73337 -14.776543,-3.67755 z"
         id="path25" />
      <path
         style="fill:none;fill-rule:evenodd;stroke:#fe0000;stroke-width:0.913352;stroke-dasharray:none;stroke-opacity:1"
         id="path26"
         d="m 33.331012,238.22257 c 0.136805,0.22647 -0.244519,0.24693 -0.384763,0.16645 -0.38048,-0.21835 -0.310171,-0.69847 -0.06814,-0.91969 0.432898,-0.39567 1.196563,-0.19755 1.603974,0.25 0.597754,0.65666 0.415736,1.58034 -0.234125,2.00722 -0.866512,0.56919 -2.178104,0.18681 -2.846082,-0.67818 -0.840758,-1.08874 -0.482824,-2.48614 0.581541,-3.08789 1.288616,-0.72853 3.11084,-0.16837 4.025869,1.07889 1.078103,1.46955 0.654168,3.37514 -0.829506,4.18772 -1.714158,0.93882 -4.158,0.17219 -5.33073,-1.52979 -1.332622,-1.93403 -0.641072,-4.29619 1.25447,-5.24873 2.125721,-1.06822 5.013375,-0.13994 6.424248,1.90063 1.566075,2.26505 0.922391,5.17335 -1.401256,6.37486"
         transform="matrix(0.81548129,0,0,0.7962783,9.0076545,47.68287)" />
      <path
         style="fill:none;fill-rule:evenodd;stroke:#fe0000;stroke-width:0.852501;stroke-dasharray:none;stroke-opacity:1"
         id="path27"
         d="m 45.757521,218.82783 c -0.0564,0.18006 -0.270688,0.0101 -0.299297,-0.097 -0.07753,-0.29018 0.232747,-0.50207 0.486815,-0.50106 0.454278,0.002 0.748984,0.46361 0.710928,0.8862 -0.05583,0.62003 -0.682859,1.00106 -1.272454,0.90834 -0.785837,-0.12359 -1.260825,-0.93639 -1.121529,-1.68607 0.175291,-0.94338 1.152613,-1.49394 2.05912,-1.30418 1.097901,0.22982 1.755772,1.37982 1.534056,2.45959 -0.261284,1.27246 -1.589599,2.0271 -2.844282,1.72766 -1.448581,-0.34571 -2.294399,-1.8837 -1.943576,-3.28308 0.398627,-1.59007 2.085743,-2.49132 3.631237,-2.09937 1.733811,0.43971 2.763244,2.28821 2.357211,4.02497 -0.450773,1.92812 -2.490209,3.06851 -4.416133,2.555"
         transform="matrix(0.77968716,0,0,0.77106841,11.397701,48.017305)" />
    </g>
    <path
       style="fill:none;fill-opacity:1;stroke:#ffffff;stroke-width:1.532;stroke-linecap:round;stroke-dasharray:none;stroke-opacity:1"
       d="m 38.645216,173.36353 c 0,0 -3.464169,-1.13737 -4.933539,-0.31274 -1.645953,0.92373 -3.813761,5.80754 -3.813761,5.80754"
       id="path28" />
    <path
       style="fill:none;fill-opacity:1;stroke:#ffffff;stroke-width:1.532;stroke-linecap:round;stroke-dasharray:none;stroke-opacity:1"
       d="m 108.82262,185.13084 c 0,0 -1.31871,0.79426 -1.45521,1.5327 -0.16985,0.91884 0.87928,2.92646 0.87928,2.92646"
       id="path29" />
    <path
       style="fill:none;fill-opacity:1;stroke:#ffffff;stroke-width:1.532;stroke-linecap:round;stroke-dasharray:none;stroke-opacity:1"
       d="m 127.8599,192.88124 c 0,0 -2.40081,-1.3424 -3.37344,-0.39687 -0.80053,0.77822 -1.25677,3.43958 -1.25677,3.43958"
       id="path30" />
    <path
       style="fill:none;fill-opacity:1;stroke:#ffffff;stroke-width:1.532;stroke-linecap:round;stroke-dasharray:none;stroke-opacity:1"
       d="m 138.91334,177.64069 c 0,0 -2.52234,-0.15319 -3.18051,0.46768 -0.97953,0.92403 -0.37418,4.02241 -0.37418,4.02241"
       id="path31" />
    <path
       style="fill:none;fill-opacity:1;stroke:#ffffff;stroke-width:1.532;stroke-linecap:round;stroke-dasharray:none;stroke-opacity:1"
       d="m 161.925,156.30261 c 0,0 -2.76486,1.30176 -3.3073,2.44739 -0.73602,1.55449 -0.59526,5.6224 -0.59526,5.6224"
       id="path32" />
    <path
       style="fill:none;fill-opacity:1;stroke:#ffffff;stroke-width:1.532;stroke-linecap:round;stroke-dasharray:none;stroke-opacity:1"
       d="m 80.962499,203.2 c 0,0 -5.378411,0.70067 -6.879167,2.64583 -0.9757,1.26463 -0.529166,4.7625 -0.529166,4.7625"
       id="path33" />
  </g>
</svg>
