<?xml version="1.0" encoding="UTF-8" standalone="no"?>
<!-- Created with Inkscape (http://www.inkscape.org/) -->

<svg
   width="210mm"
   height="297mm"
   viewBox="0 0 210 297"
   version="1.1"
   id="svg1"
   xml:space="preserve"
   inkscape:version="1.4.1 (1:1.4.1+202503302257+93de688d07)"
   sodipodi:docname="StudyQUestLogo.svg"
   xmlns:inkscape="http://www.inkscape.org/namespaces/inkscape"
   xmlns:sodipodi="http://sodipodi.sourceforge.net/DTD/sodipodi-0.dtd"
   xmlns="http://www.w3.org/2000/svg"
   xmlns:svg="http://www.w3.org/2000/svg"><sodipodi:namedview
     id="namedview1"
     pagecolor="#ffffff"
     bordercolor="#000000"
     borderopacity="0.25"
     inkscape:showpageshadow="2"
     inkscape:pageopacity="0.0"
     inkscape:pagecheckerboard="0"
     inkscape:deskcolor="#d1d1d1"
     inkscape:document-units="mm"
     inkscape:zoom="0.82761825"
     inkscape:cx="325.63323"
     inkscape:cy="493.58506"
     inkscape:window-width="1920"
     inkscape:window-height="1018"
     inkscape:window-x="0"
     inkscape:window-y="0"
     inkscape:window-maximized="1"
     inkscape:current-layer="g1" /><defs
     id="defs1"><inkscape:path-effect
       effect="spiro"
       id="path-effect16"
       is_visible="true"
       lpeversion="1" /><linearGradient
       id="swatch10"
       inkscape:swatch="solid"><stop
         style="stop-color:#000000;stop-opacity:1;"
         offset="0"
         id="stop11" /></linearGradient><inkscape:path-effect
       effect="spiro"
       id="path-effect3"
       is_visible="true"
       lpeversion="1" /><inkscape:path-effect
       effect="spiro"
       id="path-effect59"
       is_visible="true"
       lpeversion="1" /><linearGradient
       id="swatch53"
       inkscape:swatch="solid"><stop
         style="stop-color:#666666;stop-opacity:1;"
         offset="0"
         id="stop53" /></linearGradient><inkscape:path-effect
       effect="bspline"
       id="path-effect23"
       is_visible="true"
       lpeversion="1.3"
       weight="33.333333"
       steps="2"
       helper_size="0"
       apply_no_weight="true"
       apply_with_weight="true"
       only_selected="false"
       uniform="false" /><inkscape:path-effect
       effect="bspline"
       id="path-effect22"
       is_visible="true"
       lpeversion="1.3"
       weight="33.333333"
       steps="2"
       helper_size="0"
       apply_no_weight="true"
       apply_with_weight="true"
       only_selected="false"
       uniform="false" /><inkscape:path-effect
       effect="bspline"
       id="path-effect21"
       is_visible="true"
       lpeversion="1.3"
       weight="33.333333"
       steps="2"
       helper_size="0"
       apply_no_weight="true"
       apply_with_weight="true"
       only_selected="false"
       uniform="false" /><inkscape:path-effect
       effect="bspline"
       id="path-effect20"
       is_visible="true"
       lpeversion="1.3"
       weight="33.333333"
       steps="2"
       helper_size="0"
       apply_no_weight="true"
       apply_with_weight="true"
       only_selected="false"
       uniform="false" /><inkscape:path-effect
       effect="bspline"
       id="path-effect19"
       is_visible="true"
       lpeversion="1.3"
       weight="33.333333"
       steps="2"
       helper_size="0"
       apply_no_weight="true"
       apply_with_weight="true"
       only_selected="false"
       uniform="false" /><inkscape:path-effect
       effect="bspline"
       id="path-effect18"
       is_visible="true"
       lpeversion="1.3"
       weight="33.333333"
       steps="2"
       helper_size="0"
       apply_no_weight="true"
       apply_with_weight="true"
       only_selected="false"
       uniform="false" /><inkscape:path-effect
       effect="bspline"
       id="path-effect17"
       is_visible="true"
       lpeversion="1.3"
       weight="33.333333"
       steps="2"
       helper_size="0"
       apply_no_weight="true"
       apply_with_weight="true"
       only_selected="false"
       uniform="false" /><inkscape:path-effect
       effect="spiro"
       id="path-effect15"
       is_visible="true"
       lpeversion="1" /><linearGradient
       id="swatch4"
       inkscape:swatch="solid"><stop
         style="stop-color:#000000;stop-opacity:1;"
         offset="0"
         id="stop4" /></linearGradient><inkscape:path-effect
       effect="spiro"
       id="path-effect1"
       is_visible="true"
       lpeversion="1" /><inkscape:path-effect
       effect="spiro"
       id="path-effect148"
       is_visible="true"
       lpeversion="1" /><inkscape:path-effect
       effect="spiro"
       id="path-effect147"
       is_visible="true"
       lpeversion="1" /><inkscape:path-effect
       effect="spiro"
       id="path-effect146"
       is_visible="true"
       lpeversion="1" /><inkscape:path-effect
       effect="spiro"
       id="path-effect145"
       is_visible="true"
       lpeversion="1" /><inkscape:path-effect
       effect="spiro"
       id="path-effect144"
       is_visible="true"
       lpeversion="1" /><inkscape:path-effect
       effect="spiro"
       id="path-effect142"
       is_visible="true"
       lpeversion="1" /><inkscape:path-effect
       effect="spiro"
       id="path-effect141"
       is_visible="true"
       lpeversion="1" /><inkscape:path-effect
       effect="spiro"
       id="path-effect140"
       is_visible="true"
       lpeversion="1" /><inkscape:path-effect
       effect="spiro"
       id="path-effect139"
       is_visible="true"
       lpeversion="1" /><inkscape:path-effect
       effect="spiro"
       id="path-effect138"
       is_visible="true"
       lpeversion="1" /><inkscape:path-effect
       effect="spiro"
       id="path-effect137"
       is_visible="true"
       lpeversion="1" /><inkscape:path-effect
       effect="spiro"
       id="path-effect136"
       is_visible="true"
       lpeversion="1" /><inkscape:path-effect
       effect="spiro"
       id="path-effect135"
       is_visible="true"
       lpeversion="1" /><inkscape:path-effect
       effect="spiro"
       id="path-effect134"
       is_visible="true"
       lpeversion="1" /><inkscape:path-effect
       effect="spiro"
       id="path-effect133"
       is_visible="true"
       lpeversion="1" /><inkscape:path-effect
       effect="spiro"
       id="path-effect132"
       is_visible="true"
       lpeversion="1" /><inkscape:path-effect
       effect="spiro"
       id="path-effect131"
       is_visible="true"
       lpeversion="1" /><inkscape:path-effect
       effect="spiro"
       id="path-effect130"
       is_visible="true"
       lpeversion="1" /><inkscape:path-effect
       effect="spiro"
       id="path-effect129"
       is_visible="true"
       lpeversion="1" /><inkscape:path-effect
       effect="spiro"
       id="path-effect128"
       is_visible="true"
       lpeversion="1" /><inkscape:path-effect
       effect="spiro"
       id="path-effect127"
       is_visible="true"
       lpeversion="1" /><linearGradient
       id="swatch116"><stop
         style="stop-color:#9ac33d;stop-opacity:1;"
         offset="0"
         id="stop116" /></linearGradient><linearGradient
       id="linearGradient107"
       inkscape:swatch="gradient"><stop
         style="stop-color:#9bc53d;stop-opacity:1;"
         offset="0"
         id="stop108" /><stop
         style="stop-color:#9bc53d;stop-opacity:0;"
         offset="1"
         id="stop109" /></linearGradient><inkscape:path-effect
       effect="spiro"
       id="path-effect97"
       is_visible="true"
       lpeversion="1" /><inkscape:path-effect
       effect="spiro"
       id="path-effect96"
       is_visible="true"
       lpeversion="1" /><inkscape:path-effect
       effect="spiro"
       id="path-effect95"
       is_visible="true"
       lpeversion="1" /><inkscape:path-effect
       effect="spiro"
       id="path-effect91"
       is_visible="true"
       lpeversion="1" /><inkscape:path-effect
       effect="line_segment"
       id="path-effect88"
       is_visible="true"
       lpeversion="1"
       end_type="open_both" /><inkscape:path-effect
       effect="spiro"
       id="path-effect66"
       is_visible="true"
       lpeversion="1" /><inkscape:path-effect
       effect="spiro"
       id="path-effect65"
       is_visible="true"
       lpeversion="1" /><inkscape:path-effect
       effect="spiro"
       id="path-effect64"
       is_visible="true"
       lpeversion="1" /><inkscape:path-effect
       effect="spiro"
       id="path-effect63"
       is_visible="true"
       lpeversion="1" /><inkscape:path-effect
       effect="spiro"
       id="path-effect62"
       is_visible="true"
       lpeversion="1" /><inkscape:path-effect
       effect="spiro"
       id="path-effect58"
       is_visible="true"
       lpeversion="1" /><inkscape:path-effect
       effect="spiro"
       id="path-effect57"
       is_visible="true"
       lpeversion="1" /><inkscape:path-effect
       effect="spiro"
       id="path-effect56"
       is_visible="true"
       lpeversion="1" /><inkscape:path-effect
       effect="spiro"
       id="path-effect55"
       is_visible="true"
       lpeversion="1" /><inkscape:path-effect
       effect="spiro"
       id="path-effect54"
       is_visible="true"
       lpeversion="1" /><inkscape:path-effect
       effect="spiro"
       id="path-effect53"
       is_visible="true"
       lpeversion="1" /><inkscape:path-effect
       effect="spiro"
       id="path-effect52"
       is_visible="true"
       lpeversion="1" /><inkscape:path-effect
       effect="spiro"
       id="path-effect51"
       is_visible="true"
       lpeversion="1" /><inkscape:path-effect
       effect="spiro"
       id="path-effect48"
       is_visible="true"
       lpeversion="1" /><inkscape:path-effect
       effect="bspline"
       id="path-effect25"
       is_visible="true"
       lpeversion="1.3"
       weight="33.333333"
       steps="2"
       helper_size="0"
       apply_no_weight="true"
       apply_with_weight="true"
       only_selected="false"
       uniform="false" /><inkscape:path-effect
       effect="powerstroke"
       message=""
       id="path-effect14"
       is_visible="true"
       lpeversion="1.3"
       scale_width="1"
       interpolator_type="CentripetalCatmullRom"
       interpolator_beta="0.75"
       start_linecap_type="round"
       end_linecap_type="round"
       offset_points="72.393279,5.7632599"
       linejoin_type="spiro"
       miter_limit="4"
       not_jump="true"
       sort_points="true" /><inkscape:path-effect
       effect="simplify"
       id="path-effect13"
       is_visible="true"
       lpeversion="1.3"
       threshold="0.012"
       steps="1"
       smooth_angles="0"
       helper_size="0"
       simplify_individual_paths="false"
       simplify_just_coalesce="false"
       step="1" /><inkscape:path-effect
       effect="powerstroke"
       message=""
       id="path-effect12"
       is_visible="true"
       lpeversion="1.3"
       scale_width="1"
       interpolator_type="CentripetalCatmullRom"
       interpolator_beta="0.75"
       start_linecap_type="round"
       end_linecap_type="round"
       offset_points="85.854287,5.7632599"
       linejoin_type="spiro"
       miter_limit="4"
       not_jump="true"
       sort_points="true" /><inkscape:path-effect
       effect="simplify"
       id="path-effect11"
       is_visible="true"
       lpeversion="1.3"
       threshold="0.012"
       steps="1"
       smooth_angles="0"
       helper_size="0"
       simplify_individual_paths="false"
       simplify_just_coalesce="false"
       step="1" /><inkscape:path-effect
       effect="simplify"
       id="path-effect8"
       is_visible="true"
       lpeversion="1.3"
       threshold="25,153374"
       steps="1"
       smooth_angles="360"
       helper_size="0"
       simplify_individual_paths="false"
       simplify_just_coalesce="false" /><inkscape:path-effect
       effect="spiro"
       id="path-effect56-0"
       is_visible="true"
       lpeversion="1" /><inkscape:path-effect
       effect="spiro"
       id="path-effect55-6"
       is_visible="true"
       lpeversion="1" /><inkscape:path-effect
       effect="spiro"
       id="path-effect54-6"
       is_visible="true"
       lpeversion="1" /><inkscape:path-effect
       effect="spiro"
       id="path-effect53-1"
       is_visible="true"
       lpeversion="1" /><inkscape:path-effect
       effect="spiro"
       id="path-effect52-8"
       is_visible="true"
       lpeversion="1" /><inkscape:path-effect
       effect="spiro"
       id="path-effect51-4"
       is_visible="true"
       lpeversion="1" /><inkscape:path-effect
       effect="spiro"
       id="path-effect62-3"
       is_visible="true"
       lpeversion="1" /><inkscape:path-effect
       effect="spiro"
       id="path-effect62-0"
       is_visible="true"
       lpeversion="1" /><inkscape:path-effect
       effect="spiro"
       id="path-effect66-1"
       is_visible="true"
       lpeversion="1" /><inkscape:path-effect
       effect="spiro"
       id="path-effect53-8"
       is_visible="true"
       lpeversion="1" /><inkscape:path-effect
       effect="spiro"
       id="path-effect54-2"
       is_visible="true"
       lpeversion="1" /><inkscape:path-effect
       effect="spiro"
       id="path-effect56-6"
       is_visible="true"
       lpeversion="1" /><inkscape:path-effect
       effect="spiro"
       id="path-effect53-1-6"
       is_visible="true"
       lpeversion="1" /><inkscape:path-effect
       effect="spiro"
       id="path-effect54-6-0"
       is_visible="true"
       lpeversion="1" /><inkscape:path-effect
       effect="spiro"
       id="path-effect56-0-3"
       is_visible="true"
       lpeversion="1" /><inkscape:path-effect
       effect="spiro"
       id="path-effect127-1"
       is_visible="true"
       lpeversion="1" /><inkscape:path-effect
       effect="spiro"
       id="path-effect127-4"
       is_visible="true"
       lpeversion="1" /><inkscape:path-effect
       effect="bspline"
       id="path-effect19-2"
       is_visible="true"
       lpeversion="1.3"
       weight="33.333333"
       steps="2"
       helper_size="0"
       apply_no_weight="true"
       apply_with_weight="true"
       only_selected="false"
       uniform="false" /><filter
       style="color-interpolation-filters:sRGB;"
       inkscape:label="Color Shift"
       id="filter28"
       x="-0.45984251"
       y="-0.30656168"
       width="1.919685"
       height="1.6131234"><feColorMatrix
         type="hueRotate"
         values="0"
         result="color1"
         id="feColorMatrix27" /><feColorMatrix
         type="saturate"
         values="0.9"
         result="color2"
         id="feColorMatrix28" /></filter></defs><g
     id="g1"
     style="filter:url(#filter28)"><path
       style="fill:#fde74c;fill-opacity:1;stroke:#fde74c;stroke-width:1.29254;stroke-linecap:butt;stroke-linejoin:miter;stroke-miterlimit:0;stroke-dasharray:none;stroke-dashoffset:0;stroke-opacity:1;paint-order:normal;filter:url(#filter28)"
       d="m 34.350487,165.11966 c -0.11404,-0.54502 -0.30274,-25.72649 -0.41931,-55.95886 l -0.21199,-54.96794 9.57181,-7.781984 c 16.12079,-13.106312 34.52821,-28.026406 35.94501,-29.135177 0.73905,-0.578371 3.84617,-3.060275 6.90467,-5.515342 3.05852,-2.455065 6.72611,-5.39667 8.15019,-6.536897 l 2.58927,-2.073139 0.29166,1.875148 c 0.16041,1.031332 0.30607,26.096633 0.32365,55.700741 l 0.0319,53.82551 -8.30717,6.81305 c -17.27278,14.16609 -54.214167,47.47082 -54.903277,46.09684 -0.35735,-0.71251 2.451937,0.11961 0.03349,-5.53887 z"
       id="path126-3"
       sodipodi:nodetypes="cccsssscsccsscc"
       transform="matrix(-1,0,0,1,138.59946,45.716026)" /><path
       style="fill:#fde74c;fill-opacity:1;stroke:#fde74c;stroke-width:1.29254;stroke-linecap:butt;stroke-linejoin:miter;stroke-miterlimit:0;stroke-dasharray:none;stroke-dashoffset:0;stroke-opacity:1;paint-order:normal"
       d="m 105.00622,211.16064 c -0.11404,-0.54502 -0.30274,-25.72649 -0.41931,-55.95886 l -0.21199,-54.96794 9.57181,-7.781984 c 16.12079,-13.106312 34.52821,-28.026406 35.94501,-29.135177 0.73905,-0.578371 3.84617,-3.060275 6.90467,-5.515342 3.05852,-2.455065 6.72611,-5.39667 8.15019,-6.536897 l 2.58927,-2.073139 0.29166,1.875148 c 0.16041,1.031332 0.30607,26.096633 0.32365,55.700741 l 0.0319,53.82551 -8.30717,6.81305 c -17.27278,14.16609 -53.89447,47.15113 -54.58358,45.77715 -0.35735,-0.71251 2.13224,0.4393 -0.28621,-5.21918 z"
       id="path126"
       sodipodi:nodetypes="cccsssscsccsscc" /><path
       style="fill:#9bc53d;fill-opacity:1;stroke:#9bc53d;stroke-width:2.13818;stroke-linecap:round;stroke-linejoin:round;stroke-dasharray:none;stroke-opacity:1;filter:url(#filter28)"
       d="M 63.60953,202.03866 23.07586,168.04093 23.20044,112.8792 c 0.0685,-30.338954 0.31132,-55.342079 0.53956,-55.562496 0.22824,-0.220416 3.74131,3.062878 7.80682,7.296211 l 7.39184,7.69697 0.0104,44.768425 0.0104,44.76843 1.44318,1.06699 1.44318,1.06699 4.156003,3.44527 3.196924,2.16649 16.494595,14.10287 c 18.915066,16.17237 38.644228,31.81502 39.464188,32.43142 0.41967,0.31547 0.93408,0.1703 1.63084,-0.46026 0.55979,-0.50661 12.53796,-13.38674 28.2996,-25.68338 l 26.00303,-20.28658 2.37613,-2.48975 4.29428,-2.48974 1.85486,-1.55724 1.85485,-1.55725 -0.159,-43.66154 c -0.0874,-24.013848 -0.32926,-44.109341 -0.53735,-44.656645 -0.31789,-0.836123 0.74649,-2.184694 6.66241,-8.44124 4.31352,-4.561877 7.46047,-7.505102 8.12432,-7.598357 l 1.08357,-0.15222 v 55.290512 55.29052 l -40.68486,34.09844 c -22.37671,18.75414 -40.93963,34.13576 -41.25095,34.18139 -0.31132,0.0456 -18.80619,-15.21603 -41.09971,-33.91477 z"
       id="path38"
       sodipodi:nodetypes="cccsscccccccssssccccccssscccsssc" /><path
       style="fill:none;fill-opacity:1;stroke:#000000;stroke-width:2;stroke-linecap:butt;stroke-linejoin:miter;stroke-miterlimit:21.9;stroke-dasharray:none;stroke-dashoffset:0;stroke-opacity:1;paint-order:markers fill stroke"
       d="m 22.733616,48.421318 -0.256877,112.512132 82.842841,69.3568 83.22815,-69.74211 -0.12843,-112.126821 h -3.9816 L 170.05259,63.705502 170.30947,40.329693 165.55724,40.201254 104.80583,90.420712 45.081917,40.843447 40.329693,40.58657 V 63.448625 L 25.816141,48.421319 Z"
       id="path137"
       inkscape:path-effect="#path-effect138"
       inkscape:original-d="m 22.733616,48.421318 -0.256877,112.512132 82.842841,69.3568 83.22815,-69.74211 -0.12843,-112.126821 h -3.9816 L 170.05259,63.705502 170.30947,40.329693 165.55724,40.201254 104.80583,90.420712 45.081917,40.843447 40.329693,40.58657 V 63.448625 L 25.816141,48.421319 Z"
       transform="translate(-0.62996035,8.7942464)" /><path
       style="fill:none;fill-opacity:1;stroke:#000000;stroke-width:2;stroke-linecap:butt;stroke-linejoin:miter;stroke-miterlimit:21.9;stroke-dasharray:none;stroke-dashoffset:0;stroke-opacity:1;paint-order:markers fill stroke"
       d="m 40.238714,63.389755 -0.137803,88.470055 65.456819,53.88129 64.76779,-54.01909 -0.55121,-88.056645"
       id="path138"
       inkscape:path-effect="#path-effect139"
       inkscape:original-d="m 40.238714,63.389755 c -0.03685,29.522715 4.057246,73.916855 -0.137803,88.470055 l 65.456819,53.88129 64.76779,-54.01909 -0.55121,-88.056645"
       transform="translate(-0.52916663,9.1533236)"
       sodipodi:nodetypes="ccccc" /><path
       style="fill:none;fill-opacity:1;stroke:#000000;stroke-width:2;stroke-linecap:butt;stroke-linejoin:miter;stroke-miterlimit:21.9;stroke-dasharray:none;stroke-dashoffset:0;stroke-opacity:1;paint-order:markers fill stroke"
       d="M 105.57292,205.57291 104.84375,90.364581"
       id="path140"
       inkscape:path-effect="#path-effect140"
       inkscape:original-d="M 105.57292,205.57291 104.84375,90.364581"
       transform="translate(-0.52916667,9.5250003)" /><path
       style="fill:none;fill-opacity:1;stroke:#000000;stroke-width:2;stroke-linecap:butt;stroke-linejoin:miter;stroke-miterlimit:21.9;stroke-dasharray:none;stroke-dashoffset:0;stroke-opacity:1;paint-order:markers fill stroke"
       d="m 49.976852,85.510266 5.11272,3.962357"
       id="path144"
       inkscape:path-effect="#path-effect144"
       inkscape:original-d="m 49.976852,85.510266 c 2.044668,0.855355 3.501027,2.713296 5.11272,3.962357" /><path
       style="fill:none;fill-opacity:1;stroke:#000000;stroke-width:2;stroke-linecap:butt;stroke-linejoin:miter;stroke-miterlimit:21.9;stroke-dasharray:none;stroke-dashoffset:0;stroke-opacity:1;paint-order:markers fill stroke"
       d="m 47.42049,86.277174 1.022545,4.601448"
       id="path145"
       inkscape:path-effect="#path-effect145"
       inkscape:original-d="m 47.42049,86.277174 c 0.519993,1.513562 0.69515,3.128166 1.022545,4.601448" /><path
       style="fill:none;fill-opacity:1;stroke:#000000;stroke-width:2;stroke-linecap:butt;stroke-linejoin:miter;stroke-miterlimit:21.9;stroke-dasharray:none;stroke-dashoffset:0;stroke-opacity:1;paint-order:markers fill stroke"
       d="m 45.375401,84.871175 -3.578905,6.646537"
       id="path146"
       inkscape:path-effect="#path-effect146"
       inkscape:original-d="m 45.375401,84.871175 c -0.851731,1.741443 -3.223308,5.986143 -3.578905,6.646537" /><path
       style="fill:none;fill-opacity:1;stroke:#000000;stroke-width:2;stroke-linecap:butt;stroke-linejoin:miter;stroke-miterlimit:21.9;stroke-dasharray:none;stroke-dashoffset:0;stroke-opacity:1;paint-order:markers fill stroke"
       d="m 48.826488,86.149354 1.917272,3.834542"
       id="path147"
       inkscape:path-effect="#path-effect147"
       inkscape:original-d="m 48.826488,86.149354 c 0.212773,-0.364535 1.210342,2.420686 1.917272,3.834542" /><path
       style="fill:none;fill-opacity:1;stroke:#000000;stroke-width:2;stroke-linecap:butt;stroke-linejoin:miter;stroke-miterlimit:21.9;stroke-dasharray:none;stroke-dashoffset:0;stroke-opacity:1;paint-order:markers fill stroke"
       d="M 46.525764,85.893718 44.22504,91.389895"
       id="path148"
       inkscape:path-effect="#path-effect148"
       inkscape:original-d="m 46.525764,85.893718 c -0.526182,1.915129 -1.533816,3.664117 -2.300724,5.496177" /><ellipse
       style="fill:#5bc0eb;stroke:#000000;stroke-width:1.07659;stroke-miterlimit:21.9;stroke-dasharray:none;stroke-opacity:1;paint-order:markers fill stroke;fill-opacity:1"
       id="path4"
       cx="-1.2008722"
       cy="128.11127"
       rx="4.6667061"
       ry="7.3223481"
       transform="matrix(0.79379647,-0.6081835,0.60497677,0.79624312,0,0)" /><ellipse
       style="fill:#5bc0eb;stroke:#000000;stroke-width:1.0951;stroke-miterlimit:21.9;stroke-dasharray:none;stroke-opacity:1;paint-order:markers fill stroke;fill-opacity:1"
       id="path4-2"
       cx="-15.653771"
       cy="126.13909"
       rx="4.7592793"
       ry="7.4288793"
       transform="matrix(0.79952518,-0.60063257,0.61251882,0.790456,0,0)" /><ellipse
       style="fill:#5bc0eb;stroke:#000000;stroke-width:1.05404;stroke-miterlimit:21.9;stroke-dasharray:none;stroke-opacity:1;paint-order:markers fill stroke;fill-opacity:1"
       id="path4-1"
       cx="-1.3479679"
       cy="149.8532"
       rx="4.5617948"
       ry="7.180182"
       transform="matrix(0.79029698,-0.61272398,0.60042674,0.79967977,0,0)" /><ellipse
       style="fill:#5bc0eb;stroke:#000000;stroke-width:1.05344;stroke-miterlimit:21.9;stroke-dasharray:none;stroke-opacity:1;paint-order:markers fill stroke;fill-opacity:1"
       id="path4-14"
       cx="-27.420565"
       cy="142.93729"
       rx="4.4932733"
       ry="7.2814894"
       transform="matrix(0.64189472,-0.76679278,0.66495768,0.74688103,0,0)" /><path
       style="fill:#5bc0eb;fill-opacity:1;stroke:#000000;stroke-width:1;stroke-linecap:square;stroke-miterlimit:21.9;stroke-dasharray:none;stroke-opacity:1;paint-order:markers fill stroke"
       d="m 72.0301,143.05862 c 0,0 5.675603,4.75749 5.675603,4.75749 0,0 0.333861,12.18586 0.333861,12.18586 0,0 12.60318,10.1827 12.60318,10.1827 0,0 -0.166929,5.25828 -0.166929,5.25828 0,0 -12.436251,-9.59844 -12.436251,-9.59844 0,0 0.166929,11.85199 0.166929,11.85199 0,0 -5.925999,-4.42363 -5.925999,-4.42363 0,0 0,-12.18586 0,-12.18586 0,0 -12.853575,-10.34963 -12.853575,-10.34963 0,0 0,-5.42521 0,-5.42521 0,0 12.603181,9.93231 12.603181,9.93231 z"
       id="path17"
       inkscape:original-d="m 72.0301,143.05862 5.675603,4.75749 0.333861,12.18586 12.60318,10.1827 -0.166929,5.25828 -12.436251,-9.59844 0.166929,11.85199 -5.925999,-4.42363 V 161.08701 L 59.426919,150.73738 v -5.42521 l 12.603181,9.93231 z"
       inkscape:path-effect="#path-effect17" /><path
       style="fill:#5bc0eb;fill-opacity:1;stroke:#000000;stroke-width:1;stroke-linecap:square;stroke-miterlimit:21.9;stroke-dasharray:none;stroke-opacity:1;paint-order:markers fill stroke"
       d="m 141.00087,94.368055 c 0,0 4.51996,18.741315 4.51996,18.741315 0,0 -4.85069,2.31511 -4.85069,2.31511 0,0 -0.7717,-1.32292 -0.7717,-1.32292 0,0 -0.11025,44.97917 -0.11025,44.97917 0,0 5.18143,6.83507 5.18143,6.83507 0,0 -0.33073,13.67014 -0.33073,13.67014 0,0 -2.64583,0.99218 -2.64583,0.99218 0,0 -3.63803,-9.03993 -3.63803,-9.03993 0,0 -4.85069,11.13455 -4.85069,11.13455 0,0 -2.64583,-0.44097 -2.64583,-0.44097 0,0 -0.11025,-14.77257 -0.11025,-14.77257 0,0 6.83507,-9.59114 6.83507,-9.59114 0,0 0.22049,-43.65625 0.22049,-43.65625 0,0 -3.41754,2.86631 -3.41754,2.86631 0,0 -4.40972,-3.96875 -4.40972,-3.96875 z"
       id="path18"
       inkscape:path-effect="#path-effect18"
       inkscape:original-d="m 141.00087,94.368055 4.51996,18.741315 -4.85069,2.31511 -0.7717,-1.32292 -0.11025,44.97917 5.18143,6.83507 -0.33073,13.67014 -2.64583,0.99218 -3.63803,-9.03993 -4.85069,11.13455 -2.64583,-0.44097 -0.11025,-14.77257 6.83507,-9.59114 0.22049,-43.65625 -3.41754,2.86631 -4.40972,-3.96875 z"
       transform="translate(0.55121539,-6.6145833)" /><path
       style="fill:#000000;fill-opacity:0.30148619;stroke:#000000;stroke-width:1;stroke-linecap:square;stroke-miterlimit:21.9;stroke-dasharray:none;stroke-opacity:0;paint-order:markers fill stroke"
       d="m 42.119769,164.80101 c 0,0 -0.11865,10.08501 -0.11865,10.08501 0,0 63.238981,41.88248 63.238981,41.88248"
       id="path21"
       inkscape:original-d="m 42.119769,164.80101 -0.11865,10.08501 63.238981,41.88248"
       inkscape:path-effect="#path-effect22"
       transform="matrix(1.0077365,0,0,1.0094141,-2.0695056,-3.7204808)" /><path
       style="fill:#000000;fill-opacity:1;stroke:#000000;stroke-width:7.52306;stroke-linecap:round;stroke-linejoin:round;stroke-opacity:1"
       d=""
       id="path32"
       transform="scale(0.26458333)" /><path
       style="fill:#666666;fill-opacity:1;stroke:#666666;stroke-width:1.34949e-08;stroke-linecap:round;stroke-linejoin:round;stroke-miterlimit:0;stroke-dasharray:none;stroke-opacity:1"
       d="m 195.78825,165.65054 c 3.89665,-0.0749 10.27298,-0.0749 14.16963,0 3.89664,0.0749 0.70848,0.13615 -7.08482,0.13615 -7.79329,0 -10.98146,-0.0613 -7.08481,-0.13615 z"
       id="path43"
       transform="scale(0.26458333)" /><path
       style="fill:#666666;fill-opacity:1;stroke:#666666;stroke-width:1.34949e-08;stroke-linecap:round;stroke-linejoin:round;stroke-miterlimit:0;stroke-dasharray:none;stroke-opacity:1"
       d="m 219.40429,165.21182 c 0.80408,-0.0998 2.11983,-0.0998 2.9239,0 0.80407,0.0998 0.14619,0.18142 -1.46195,0.18142 -1.60814,0 -2.26602,-0.0816 -1.46195,-0.18142 z"
       id="path44"
       transform="scale(0.26458333)" /><g
       id="g2"
       transform="translate(-0.15380694,-0.66351033)"><path
         style="fill:#5bc0eb;fill-opacity:1;stroke:none;stroke-width:0.4;stroke-linecap:round;stroke-linejoin:round;stroke-miterlimit:0;filter:url(#filter28)"
         d="m 21.419396,17.583087 v 6.393849 h 39.322176 v -6.713542 z"
         id="path3"
         inkscape:path-effect="#path-effect3"
         inkscape:original-d="m 21.419396,17.583087 v 6.393849 h 39.322176 v -6.713542 z"
         transform="matrix(1.5121951,0,0,0.8618846,16.996144,26.369485)" /><path
         style="fill:none;stroke:#000000;stroke-width:2;stroke-miterlimit:21.9;paint-order:markers fill stroke;filter:url(#filter28)"
         d="M 46.302083,44.775641 104.8157,92.095351 162.3117,46.302083 106.85096,8.6498397 Z"
         id="path1"
         inkscape:path-effect="#path-effect1"
         inkscape:original-d="M 46.302083,44.775641 104.8157,92.095351 162.3117,46.302083 106.85096,8.6498397 Z" /><path
         style="fill:#5bc0eb;fill-opacity:1;stroke:#666666;stroke-width:0.0000000079375;stroke-linecap:round;stroke-linejoin:round;stroke-miterlimit:0;stroke-dasharray:none;stroke-opacity:1"
         d="m 102.95002,47.249894 c 0.039,-0.195802 0.039,-0.399285 0,-0.595087 -0.0484,-0.242998 -0.15489,-0.469771 -0.24087,-0.70214 -0.086,-0.23237 -0.15259,-0.480991 -0.11618,-0.726068 0.0334,-0.224729 0.15123,-0.43059 0.18172,-0.655731 0.0152,-0.112571 0.007,-0.231052 -0.0425,-0.333166 -0.0249,-0.05106 -0.0601,-0.09737 -0.10433,-0.132991 -0.0443,-0.03561 -0.0977,-0.06029 -0.15389,-0.06829 -0.0394,-0.0056 -0.0794,-0.0031 -0.11902,0 -0.23236,0.01811 -0.46545,0.05647 -0.68106,0.144958 -0.21561,0.08849 -0.41386,0.230215 -0.54219,0.42476 -0.0642,0.09727 -0.1102,0.206943 -0.13067,0.32166 -0.0205,0.114718 -0.0151,0.234445 0.0196,0.345716 0.0346,0.111272 0.0988,0.213752 0.18642,0.29054 0.0876,0.07679 0.19886,0.127206 0.31483,0.138609 0.0395,0.0039 0.0794,0.0033 0.11902,0 0.27715,-0.02333 0.52852,-0.1824 0.71959,-0.384511 0.19107,-0.202111 0.33053,-0.446343 0.47058,-0.686644 1.25272,-2.149494 2.69718,-4.180586 4.16561,-6.188904 0.19698,-0.269401 0.39867,-0.547222 0.48124,-0.870578 0.0413,-0.161679 0.051,-0.333136 0.0131,-0.495635 -0.0379,-0.1625 -0.12552,-0.315451 -0.25633,-0.419047 -0.15367,-0.1217 -0.3603,-0.168539 -0.55443,-0.141302 -0.19412,0.02724 -0.37501,0.124878 -0.51672,0.26032 -0.14374,0.137381 -0.24748,0.310151 -0.35705,0.47607 -0.56025,0.84838 -1.30645,1.558016 -1.90428,2.380345 -0.77354,1.064016 -1.31598,2.274903 -1.90428,3.451505 l -1.30919,2.618381 c 0,0 0,0 0,0 0,0 0,0 0,0 0,0 0,0 0,0 0,0 0,0 0,0 0,0 0,0 0,0 0,0 0,0 0,0 0,0 0,0 0,0 0,0 0,0 0,0 0,0 0,0 0,0 0,0 0,0 0,0 0,0 0,0 0,0 0,0 0,0 0,0 -10e-6,-5e-6 1e-5,1e-6 0,1e-6 -10e-6,10e-7 1e-5,-1.1e-5 1e-5,-3e-6 0,8e-6 -2e-5,-7e-6 -1e-5,-7e-6 1e-5,0 0,1.6e-5 0,1e-5 9e-5,1.02e-4 -1.6e-4,2.39e-4 -2.1e-4,1.07e-4 -4e-5,-1.31e-4 2.1e-4,-2.07e-4 2.6e-4,-7.6e-5 5e-5,1.31e-4 -1.7e-4,2.46e-4 -2.6e-4,1.43e-4 -1e-4,-1.03e-4 1e-5,-2.98e-4 1.5e-4,-2.88e-4 1.4e-4,1e-5 2.2e-4,1.95e-4 1.5e-4,3.14e-4 -7e-5,1.18e-4 -2.6e-4,1.38e-4 -3.6e-4,4.6e-5 -1.1e-4,-9.1e-5 -1.2e-4,-2.64e-4 -4e-5,-3.78e-4 8e-5,-1.14e-4 2.3e-4,-1.65e-4 3.7e-4,-1.32e-4 1e-4,-1.7e-5 2.1e-4,2.6e-5 2.8e-4,1.02e-4 7e-5,7.6e-5 1.1e-4,1.83e-4 1.1e-4,2.87e-4 -10e-6,1.05e-4 -4e-5,2.07e-4 -10e-5,2.93e-4 -6e-5,8.5e-5 -1.5e-4,1.55e-4 -2.4e-4,2.07e-4 -1.8e-4,1.04e-4 -3.9e-4,1.4e-4 -6e-4,1.45e-4 -2.1e-4,5e-6 -4.2e-4,-1.9e-5 -6.2e-4,-4.3e-5 0,0 0,0 0,0 0,0 0,0 0,10e-7 0,0 0,0 0,0 0,0 0,0 0,1e-6 0,0 0,0 0,0 0,0 0,0 0,0 0,0 0,0 0,0 0,0 0,0 0,-1e-6 0,0 0,0 0,0 -1.1e-4,-6.1e-5 -1.5e-4,-2.07e-4 -1e-4,-3.16e-4 6e-5,-1.08e-4 2.1e-4,-1.52e-4 3.1e-4,-8.2e-5 10e-5,7e-5 10e-5,2.42e-4 0,3.11e-4 -1e-4,6.8e-5 -2.6e-4,-1.1e-5 -2.6e-4,-1.33e-4 0,-1.21e-4 1.7e-4,-2.01e-4 2.6e-4,-1.14e-4 8e-5,8.7e-5 -2e-5,2.67e-4 -1.4e-4,2.34e-4 -1.1e-4,-3.4e-5 -9e-5,-2.51e-4 3e-5,-2.51e-4 1.2e-4,0 1.3e-4,2.31e-4 1e-5,2.34e-4 -0.0731,-0.01555 -0.029,-0.158075 0.0387,-0.126359 0.0677,0.03172 -0.0281,0.154858 -0.0729,0.09507 -0.0448,-0.05978 0.11055,-0.105626 0.10231,-0.03137 -0.008,0.07426 -0.14582,-0.02033 -0.0782,-0.05207 0.0165,-0.02951 0.0489,0.04068 0.0159,0.03289 -0.0329,-0.0078 0.0329,-0.05016 0.0253,-0.0172 -0.008,0.03296 -0.041,-0.03809 -0.0112,-0.022 0.0298,0.0161 -0.0481,0.0185 -0.0189,0.0014 0,0 0,0 0,0 0,0 0,0 0,0 0,0 0,0 0,0 0,0 0,0 0,0 0,0 0,0 0,0 0,0 0,0 0,0 0,0 0,0 0,0 0,0 0,0 0,0 0,0 0,0 0,0 0,0 0,0 0,0 0,0 0,0 0,0 0,0 0,0 0,0 0,-1e-6 0,-1e-6 0,0 0,10e-7 0,-2e-6 0,-1e-6 0,1e-6 0,1e-6 0,0 0,-10e-7 0,2e-6 0,1e-6 2e-5,-8e-6 -10e-6,-4.8e-5 -2e-5,-2.5e-5 -1e-5,2.3e-5 4e-5,2.9e-5 3e-5,4e-6 0,-2.5e-5 -5e-5,-8e-6 -4e-5,1.5e-5 1e-5,2.2e-5 6e-5,-2e-6 4e-5,-2.4e-5 -1e-5,-2.2e-5 -5e-5,-2e-6 -4e-5,2.2e-5 1e-5,2.4e-5 5e-5,1.9e-5 5e-5,-6e-6 1e-5,-2.5e-5 -3e-5,-4.3e-5 -5e-5,-2.7e-5 -2e-5,1.7e-5 -1e-5,5.3e-5 2e-5,6e-5 4e-5,1.09e-4 2e-4,1.42e-4 2.9e-4,6.6e-5 9e-5,-7.7e-5 9e-5,-2.31e-4 0,-3.13e-4 -8e-5,-8.1e-5 -2.3e-4,-8.5e-5 -3.2e-4,-1.7e-5 -10e-5,6.9e-5 -1.4e-4,1.97e-4 -1.2e-4,3.12e-4 3e-5,1.15e-4 1.1e-4,2.13e-4 2.1e-4,2.69e-4 1e-4,5.5e-5 2.3e-4,6.9e-5 3.4e-4,5.4e-5 2.3e-4,-3.2e-5 4.3e-4,-1.75e-4 6.2e-4,-3.1e-4 0,0 0,0 0,0 0,0 0,0 0,0 0,0 0,0 0,0 0,0 0,0 0,0 0,0 0,0 0,0 0,0 0,0 0,0 0,0 0,0 0,0 0,0 0,0 0,0 0,0 0,0 0,0 0,0 0,0 0,0 0,0 0,0 0,0 0,0 0,0 0,0 0,0 0,0 0,0 0,0 0,0 0,0 0,0 0,0 0,0 0,0 0,0 0,0 1e-5,4e-6 -1e-5,1e-5 0,3e-6 0,-7e-6 1e-5,6e-6 0,6e-6 -1e-5,0 1e-5,-1.2e-5 1e-5,-5e-6 -1e-5,7e-6 -1e-5,-6e-6 -1e-5,-4e-6 2e-5,-6e-6 -1e-5,2.4e-5 0,7e-6 0,-1.6e-5 1e-5,2.2e-5 0,7e-6 -1e-5,-1.5e-5 2e-5,1.2e-5 0,3e-6 -1e-5,-10e-6 2e-5,6e-6 0,0 -0.0243,0.01309 0.0241,-0.01253 -6.4e-4,-2.65e-4 -0.0248,0.01227 0.0236,-0.004 -0.004,6.9e-4 -0.0274,0.0048 0.0193,0.0091 -0.007,-0.0011 -0.0259,-0.01016 0.004,0.01897 -0.006,-0.0067 -3.62944,2.800041 2.32453,1.997781 -1.888568,0.191452 -4.213096,-1.806332 -1.742813,2.57123 -1.041712,-1.958833 0.697095,-4.557324 -2.519179,-2.171084 2.034114,-1.448127 4.553286,0.722964 3.150536,-1.819422 1.269336,2.38964 0,0 0,0 0,0 0,0 0,0 0,0 0,0 0,0 0,0 0,0 0,0 0,0 0,0 0,0 0,0 0,0 0,0 0,0 0,0 0,0 0,0 0,0 0,0 0,0 0,0 0,0 0,0 0,0 0,0 0,0 0,0 0,0 0,0 0,0 0,0 0,0 0,0 0,0 0,0 0,0 0,0 0,0 -10e-6,-4e-6 1e-5,-2e-6 0,0 -10e-6,2e-6 1e-5,-3e-6 0,0 0,0 0,0 0,0 0,0 0,0 0,0 0,0 0,0 0,0 0,0 0,0 0,0 0,-2e-6 0,-2e-6 0,0 0,2e-6 0,10e-7 0,10e-7 0,0 0,1e-6 0,-10e-7 0,-10e-7 0,2e-6 0,0 1.5e-4,3.22e-4 -10e-6,-4.46e-4 -4e-5,-9.2e-5 -4e-5,3.53e-4 5e-4,-2.66e-4 1.5e-4,-2.12e-4 -3.5e-4,5.4e-5 1.9e-4,6.43e-4 3.1e-4,3.1e-4 1.2e-4,-3.33e-4 -5.9e-4,-4.31e-4 -6.1e-4,-7.6e-5 -7e-5,3.97e-4 5.8e-4,6.21e-4 8.3e-4,3.02e-4 2.5e-4,-3.2e-4 1e-5,-8.4e-4 -3.7e-4,-9.68e-4 -3.8e-4,-1.29e-4 -8.1e-4,5.6e-5 -0.001,3.49e-4 -2.8e-4,2.93e-4 -4.3e-4,6.77e-4 -5.9e-4,0.0011 0,0 0,0 0,0 0,0 0,0 0,0 0,0 0,0 0,0 0,0 0,0 0,0 0,0 0,0 0,0 0,0 0,0 0,0 0,0 0,0 0,0 0,0 0,0 0,0 0,0 0,0 0,0 0,0 0,0 0,0 0,0 0,0 0,0 0,0 0,0 0,0 0,0 0,-10e-7 0,-10e-7 0,0 0,10e-7 0,10e-7 0,-10e-7 0,-2e-6 0,-10e-7 0,2e-6 0,-1e-6 0,0 0,0 0,0 0,0 0,0 0,0 0,0 0,0 0,0 0,0 0,0 0,0 0,0 0,0 0,0 0,0 0,0 0,0 0,0 -2e-5,-8.9e-5 1.1e-4,-1.5e-5 2e-5,1.1e-5 -9e-5,2e-5 7e-5,-9.3e-5 1e-5,-8e-6 1e-5,0 0,0 0,0 0,0 0,0 0,0 1.4e-4,-1.33e-4 -1e-4,-1.24e-4 4e-5,-1e-6 2.2e-4,1.14e-4 2.2e-4,-3.2e-5 0,6.3e-5 -4.4e-4,-2.2e-5 -4.4e-4,-9.1e-5 0,-1.21e-4 7.6e-4,-1.2e-5 5.5e-4,6.33e-4 -6e-5,1.82e-4 -0.81403,-0.444332 0.48139,-0.939416 0.16772,-0.06667 -6.775509,8.677783 -3.01527,-11.775792 0.19073,-1.243317 0.0487,-0.0763 0.0971,-0.156674 0.10809,-0.24652 0.005,-0.04492 0.001,-0.09158 -0.0169,-0.133125 -0.0179,-0.04155 -0.0501,-0.0776 -0.0912,-0.09642 0,0 0,0 0,0 0,0 0,0 0,0 0,0 0,0 0,0 0,0 0,0 0,0 0,0 0,0 0,0 0,0 0,0 0,0 0,0 0,0 0,0 0,0 0,0 0,0 0,-10e-7 0,-3e-6 0,-2e-6 0,0 0,2e-6 0,2e-6 0,10e-7 0,-10e-7 0,-2e-6 0,-10e-7 0,-10e-7 0,1e-6 0,10e-7 0,2e-6 0,10e-7 0,0 0,-2e-6 0,-3e-6 0,0 0,10e-7 0,2e-6 0,10e-7 0,2e-6 0,2e-6 1.3e-4,-10e-7 2.4e-4,1.39e-4 2.1e-4,2.66e-4 -3e-5,1.27e-4 -1.8e-4,2.09e-4 -3e-4,1.67e-4 -1.2e-4,-4.1e-5 -2e-4,-1.92e-4 -1.6e-4,-3.15e-4 5e-5,-1.24e-4 1.9e-4,-2.02e-4 3.1e-4,-1.77e-4 1.3e-4,2.5e-5 2.3e-4,1.47e-4 2.4e-4,2.77e-4 0,1.3e-4 -8e-5,2.57e-4 -2e-4,3.06e-4 -1.2e-4,4.9e-5 -2.7e-4,2.2e-5 -3.7e-4,-6.4e-5 -10e-5,-8.5e-5 -1.4e-4,-2.23e-4 -1.3e-4,-3.51e-4 2e-5,-1.29e-4 1e-4,-2.46e-4 2.1e-4,-3.15e-4 1.1e-4,-6.8e-5 2.5e-4,-8.8e-5 3.8e-4,-6.1e-5 1.3e-4,2.7e-5 2.4e-4,9.9e-5 3.3e-4,1.98e-4 8e-5,9.8e-5 1.4e-4,2.21e-4 1.6e-4,3.49e-4 4e-5,2.56e-4 -4e-5,5.22e-4 -1.7e-4,7.44e-4 -1.4e-4,2.22e-4 -3.2e-4,4.06e-4 -5.1e-4,5.84e-4 -3e-5,-8.8e-5 -5e-5,-1.77e-4 -9e-5,-2.58e-4 -4e-5,-8.2e-5 -10e-5,-1.57e-4 -1.8e-4,-1.98e-4 -5e-5,-2e-5 -9e-5,-3.2e-5 -1.4e-4,-3e-5 -4e-5,2e-6 -9e-5,1.6e-5 -1.2e-4,4.3e-5 -4e-5,2.8e-5 -7e-5,6.8e-5 -8e-5,1.13e-4 -1e-5,4.5e-5 0,9.3e-5 3e-5,1.3e-4 3e-5,3.7e-5 7e-5,6e-5 1.2e-4,6e-5 4e-5,-10e-7 9e-5,-2.7e-5 1.1e-4,-6.8e-5 2e-5,-4e-5 2e-5,-9.3e-5 -1e-5,-1.28e-4 -3e-5,-3.5e-5 -8e-5,-4.9e-5 -1.3e-4,-3e-5 -4e-5,1.8e-5 -6e-5,6.9e-5 -5e-5,1.13e-4 1e-5,4.4e-5 6e-5,7.5e-5 1e-4,6.6e-5 5e-5,-10e-6 8e-5,-6.1e-5 7e-5,-1.05e-4 -2e-5,-4.4e-5 -7e-5,-6.9e-5 -1.1e-4,-4.9e-5 -0.0829,0.01474 -0.13704,0.118843 -0.0987,0.193794 0.0384,0.07495 0.15847,0.08995 0.2118,0.02477 0.0533,-0.06517 0.0111,-0.182603 -0.0721,-0.195986 -0.0831,-0.01338 -0.16011,0.08973 -0.12115,0.164386 0.039,0.07465 0.17135,0.06706 0.19902,-0.01247 0.0277,-0.07953 -0.0767,-0.167599 -0.1492,-0.124698 -0.0725,0.0429 -0.0409,0.179911 0.0432,0.184325 0.0841,0.0044 0.1272,-0.133633 0.0543,-0.175842 -3.101402,2.606967 0.36829,8.859291 4.18679,7.505029 3.8185,-1.354262 2.31524,-8.540093 -1.71724,-8.147504 -4.032472,0.392587 -3.88037,7.920609 0.16905,8.05147 4.04943,0.130862 4.44602,-7.572998 0.399,-7.764354 -4.06277,-0.21182 -4.16997,7.713983 -0.10625,7.521304 4.06372,-0.19268 2.90425,-8.210711 -1.02598,-7.159881 -3.930234,1.050833 -0.59492,8.618079 2.78659,6.356152 3.38152,-2.261927 -2.6722,-8.128967 -4.75875,-4.636507 0,0 0,0 0,0 0,0 0,0 0,0 0,0 0,0 0,0 0,0 0,0 0,0 0,0 0,0 0,0 0,0 0,0 0,0 0,0 0,0 0,0 0,0 0,0 0,0 0,0 0,0 0,0 0,0 0,0 0,0 0,0 0,0 0,0 0,0 0,0 0,0 0,0 0,0 0,0 0,0 0,0 0,0 0,0 0,0 0,0 0,0 0,0 0,0 -6e-5,-6e-5 -6e-5,-1.69e-4 -10e-6,-2.33e-4 6e-5,-6.5e-5 1.6e-4,-7.9e-5 2.4e-4,-3.3e-5 7e-5,4.5e-5 1e-4,1.43e-4 8e-5,2.25e-4 -3e-5,8.2e-5 -1.1e-4,1.41e-4 -2e-4,1.44e-4 -8e-5,3e-6 -1.7e-4,-4.9e-5 -2.1e-4,-1.25e-4 -4e-5,-7.6e-5 -3e-5,-1.73e-4 10e-6,-2.46e-4 5e-5,-7.3e-5 1.3e-4,-1.2e-4 2.2e-4,-1.27e-4 8e-5,-7e-6 1.7e-4,2.5e-5 2.3e-4,8.4e-5 6e-5,5.9e-5 1e-4,1.42e-4 1.1e-4,2.28e-4 0,8.5e-5 -2e-5,1.72e-4 -7e-5,2.44e-4 -4e-5,7.2e-5 -1.1e-4,1.3e-4 -1.9e-4,1.67e-4 -8e-5,3.7e-5 -1.6e-4,5.5e-5 -2.5e-4,5.5e-5 -1.7e-4,0 -3.3e-4,-7e-5 -4.8e-4,-1.69e-4 -1.4e-4,-9.9e-5 -2.5e-4,-2.26e-4 -3.7e-4,-3.54e-4 -3.2e-4,-1.03e-4 -6.4e-4,-2.13e-4 -9.7e-4,-2.64e-4 -3.3e-4,-5.2e-5 -6.8e-4,-4.2e-5 -9.9e-4,8.6e-5 -1.6e-4,6.5e-5 -3e-4,1.59e-4 -4.2e-4,2.81e-4 -1.2e-4,1.21e-4 -2e-4,2.72e-4 -2.4e-4,4.35e-4 -5e-5,1.63e-4 -4e-5,3.39e-4 2e-5,4.97e-4 6e-5,1.57e-4 1.8e-4,2.94e-4 3.2e-4,3.74e-4 1.5e-4,8.1e-5 3.3e-4,1.02e-4 4.9e-4,5.1e-5 1.6e-4,-5e-5 3e-4,-1.74e-4 3.6e-4,-3.32e-4 6e-5,-1.57e-4 4e-5,-3.45e-4 -6e-5,-4.8e-4 -10e-5,-1.36e-4 -2.8e-4,-2.13e-4 -4.4e-4,-1.86e-4 -1.7e-4,2.6e-5 -3.2e-4,1.58e-4 -3.5e-4,3.22e-4 -4e-5,1.64e-4 4e-5,3.5e-4 1.9e-4,4.31e-4 1.4e-4,8.2e-5 3.5e-4,4.8e-5 4.5e-4,-8.2e-5 1.1e-4,-1.3e-4 1.1e-4,-3.41e-4 -1e-5,-4.6e-4 -0.27005,-0.0715 -0.58393,0.104989 -0.65367,0.375499 -0.0697,0.27051 0.12889,0.582006 0.40514,0.62352 0.27625,0.04151 0.56136,-0.20838 0.54723,-0.487377 -0.0141,-0.278998 -0.33475,-0.499514 -0.59745,-0.404517 -0.26271,0.095 -0.36433,0.481286 -0.17596,0.687583 0.18836,0.206298 0.59137,0.131038 0.68484,-0.132215 0.0935,-0.263252 -0.18492,-0.578705 -0.45593,-0.510934 -0.27101,0.06777 -0.36212,0.489714 -0.13853,0.657192 -0.0535,0.301162 0.35072,0.568752 0.60254,0.395125 0.25183,-0.173626 0.13199,-0.655972 -0.17262,-0.683792 -0.30461,-0.02782 -0.50408,0.440802 -0.26801,0.635308 0.23607,0.194507 0.6609,-0.108173 0.5474,-0.392213 -0.11356,-0.283837 -0.6398,-0.195263 -0.64721,0.110359 -0.007,0.305621 0.52868,0.408376 0.62846,0.119408 0.0998,-0.288969 -0.40289,-0.531112 -0.56115,-0.269549 -0.15825,0.261564 0.30828,0.588902 0.4955,0.347225 0.0126,-0.0071 0.0216,-0.02009 0.0242,-0.03428 0.003,-0.0142 -8.2e-4,-0.02935 -0.009,-0.04127 -0.008,-0.01192 -0.0208,-0.02059 -0.0347,-0.02446 -0.0139,-0.0039 -0.029,-0.003 -0.0426,0.0018 -0.0136,0.0048 -0.0257,0.01361 -0.035,0.02465 -0.009,0.01103 -0.0159,0.02429 -0.0196,0.03825 -0.007,0.02792 -0.004,0.05799 0.007,0.08503 0.0204,0.05408 0.0635,0.09594 0.0945,0.14472 0.0155,0.02439 0.0282,0.05112 0.0325,0.07969 0.004,0.02857 -3.3e-4,0.05923 -0.0169,0.0829 -0.0176,0.02032 -0.0418,0.03478 -0.0678,0.04151 -0.0261,0.0067 -0.0539,0.0058 -0.0797,-0.0019 -0.0258,-0.0077 -0.0494,-0.02212 -0.0687,-0.04094 -0.0192,-0.01882 -0.0341,-0.042 -0.0438,-0.06707 -0.0195,-0.05015 -0.0184,-0.107001 -0.003,-0.158433 0.0159,-0.05143 0.0458,-0.09774 0.0818,-0.137765 0.072,-0.08005 0.16684,-0.135258 0.25018,-0.20339 0.0417,-0.03407 0.0809,-0.07181 0.11149,-0.116062 0.0306,-0.04426 0.0525,-0.09545 0.0572,-0.149063 -0.002,-0.02001 -0.006,-0.03978 -0.007,-0.0598 -0.002,-0.02002 -5.8e-4,-0.04073 0.007,-0.05922 0.01,-0.02304 0.03,-0.04106 0.0535,-0.04962 0.0235,-0.0086 0.0499,-0.0079 0.0736,1.59e-4 0.0237,0.0081 0.0446,0.0234 0.0608,0.04245 0.0162,0.01905 0.0279,0.04174 0.0355,0.06555 0.0154,0.04762 0.015,0.09875 0.0127,0.148727 -0.002,0.04998 -0.006,0.100433 0.002,0.149777 0.0103,0.06169 0.04,0.119399 0.0811,0.166579 0.0411,0.04718 0.0932,0.0841 0.14948,0.111277 0.11267,0.05436 0.23977,0.06975 0.3645,0.0792 0.41481,0.03141 0.83734,0.0045 1.23533,-0.116557 0.39799,-0.121072 0.77104,-0.339737 1.04392,-0.653728 0.27288,-0.31399 0.43977,-0.726451 0.42575,-1.142211 -0.007,-0.207881 -0.0587,-0.414654 -0.15461,-0.599223 -0.0959,-0.184568 -0.23626,-0.346478 -0.40807,-0.463714 -0.0818,-0.0558 -0.17091,-0.10168 -0.26593,-0.129434 -0.095,-0.02775 -0.19615,-0.03702 -0.29375,-0.02046 -0.0976,0.01656 -0.19147,0.05966 -0.26336,0.127717 -0.0719,0.06806 -0.12068,0.161574 -0.1291,0.260211 -0.003,0.03955 -4.2e-4,0.07933 0,0.119017 0.002,0.176792 -0.047,0.352205 -0.1283,0.509232 -0.0812,0.157027 -0.19408,0.296312 -0.32158,0.418803 -0.25499,0.244982 -0.56555,0.422371 -0.85931,0.619191 -0.0141,0.0094 -0.0282,0.019 -0.0399,0.03121 -0.0117,0.01221 -0.021,0.02743 -0.0233,0.04421 -0.001,0.0084 -4.6e-4,0.01707 0.002,0.02506 0.003,0.008 0.008,0.01525 0.0145,0.02042 0.007,0.0052 0.0152,0.0082 0.0236,0.0079 0.008,-2.07e-4 0.0169,-0.0037 0.0227,-0.0098 0.004,-0.0037 0.006,-0.0082 0.008,-0.01306 0.002,-0.0048 0.002,-0.0099 0.003,-0.01502 3.3e-4,-0.01019 -0.002,-0.0203 -0.004,-0.03029 -0.004,-0.01998 -0.007,-0.04026 -0.007,-0.06065 v -0.595088"
         id="path59"
         inkscape:path-effect="#path-effect59"
         inkscape:original-d="m 102.95002,47.249894 c 0,-0.198363 0.0141,-0.397229 0,-0.595087 -0.0887,-1.242346 -0.0344,-0.782834 -0.35705,-1.428208 -0.15662,-0.313235 0.049,-0.854138 -0.11902,-1.190175 -0.0177,-0.03548 -0.0793,0 -0.11902,0 -0.20884,0 -0.85041,1.648955 -0.83312,1.666243 0.028,0.02805 0.0883,0.02513 0.11902,0 0.41309,-0.337982 0.84598,-0.663224 1.19017,-1.071155 1.14982,-1.36275 3.42786,-4.713396 4.16561,-6.188904 0.26849,-0.536971 0.38364,-1.202832 0.23803,-1.78526 -0.0221,-0.08856 -0.6967,-0.130619 -1.07115,0.119018 -0.16505,0.110032 -0.23393,0.320543 -0.35705,0.47607 -0.63071,0.796676 -1.3247,1.545743 -1.90428,2.380345 -0.16526,0.237974 -1.68545,3.013853 -1.90428,3.451505 -0.43638,0.87276 -0.87711,1.754222 -1.30919,2.618381 -0.0177,0.03549 -0.0139,-0.08187 0,-0.119018 0.10609,-0.282898 0.24859,-0.551122 0.35705,-0.83312 0.17971,-0.467236 0.28743,-0.821822 0.35705,-1.309193 0.0224,-0.157093 0,-0.634759 0,-0.476067 0,0.595085 -0.0786,1.195393 0,1.78526 0.0483,0.362553 0.17261,0.711293 0.23804,1.071155 0.0213,0.117099 -0.066,0.456081 0,0.357053 0.24818,-0.372274 0.23803,-0.473179 0.23803,-0.83312 0,-0.03967 0.0397,-0.119018 0,-0.119018 -0.14304,0 0.15221,0.242618 0.23804,0.35705 0.17004,0.226722 0.1489,0.766059 0.59508,0.357053 0.39311,-0.360344 2.14232,-2.281868 2.14232,-2.975433 0,-0.0441 -0.81826,-0.02972 -0.95214,0.238035 -0.0177,0.03548 0.0177,0.08353 0,0.119017 -0.26554,0.531072 -1.30919,0.909051 -1.30919,1.547226 0,0.03967 -0.0397,0.119017 0,0.119017 0.0397,0 0,-0.07935 0,-0.119017 0,-0.198364 0,-0.396725 0,-0.595088"
         transform="translate(-0.18736144,-0.50855248)" /><ellipse
         style="fill:none;fill-opacity:1;stroke:#000000;stroke-width:2;stroke-linecap:butt;stroke-linejoin:miter;stroke-miterlimit:21.9;stroke-dasharray:none;stroke-dashoffset:0;stroke-opacity:1;paint-order:markers fill stroke;filter:url(#filter28)"
         id="path149"
         cx="105.47089"
         cy="44.986416"
         rx="1.0873288"
         ry="1.6309931" /><g
         id="g144"
         transform="matrix(0.98995495,0,0,1.003103,-1.4267548,-1.2018951)"
         style="filter:url(#filter28)"><path
           style="fill:none;fill-opacity:1;stroke:#000000;stroke-width:2;stroke-linecap:butt;stroke-linejoin:miter;stroke-miterlimit:21.9;stroke-dasharray:none;stroke-dashoffset:0;stroke-opacity:1;paint-order:markers fill stroke"
           d="m 105.96115,45.758856 -58.029387,0.255635 0.63909,36.044688"
           id="path142"
           inkscape:path-effect="#path-effect142"
           inkscape:original-d="m 105.96115,45.758856 -58.029387,0.255635 0.63909,36.044688" /><circle
           style="fill:none;fill-opacity:1;stroke:#000000;stroke-width:2;stroke-linecap:butt;stroke-linejoin:miter;stroke-miterlimit:21.9;stroke-dasharray:none;stroke-dashoffset:0;stroke-opacity:1;paint-order:markers fill stroke"
           id="path143"
           cx="48.780476"
           cy="83.14563"
           r="1.9811795" /><path
           style="fill:#5bc0eb;fill-opacity:1;stroke:#5bc0eb;stroke-width:0.00000000357053;stroke-linecap:round;stroke-linejoin:round;stroke-miterlimit:0;stroke-dasharray:none;stroke-opacity:1;filter:url(#filter28)"
           d="M 99.846458,87.328726 C 94.062214,82.737655 86.392904,76.542894 61.937994,56.708807 51.614364,48.335856 48.450954,45.757248 48.474214,45.733986 c 0.0468,-0.04676 15.50116,-0.394828 21.50106,-0.484254 8.04792,-0.119949 30.620236,-0.114451 31.335726,0.0076 0.45009,0.0768 0.72146,0.232582 1.29211,0.74176 1.04756,0.934722 1.79907,1.100534 2.67127,0.589388 0.71647,-0.41988 1.16574,-1.353034 1.16962,-2.429332 0.004,-1.070909 -0.2003,-1.57701 -0.94303,-2.337763 -0.77356,-0.79233 -0.9588,-0.810144 -2.4332,-0.234009 -0.68547,0.267851 -1.43147,0.457436 -2.11,0.536224 -2.424022,0.281466 -11.913546,0.418935 -37.885506,0.548827 -12.79706,0.064 -14.43322,0.05201 -14.22257,-0.104195 0.43778,-0.324636 30.96877,-18.596377 43.14379,-25.820068 7.660004,-4.544838 13.445876,-7.8288383 13.793146,-7.8288383 0.2238,0 12.03626,7.9431493 29.46966,19.8165243 2.422,1.649555 7.45644,5.077184 11.18763,7.616957 13.29824,9.051922 13.41339,9.132689 13.24595,9.290568 -0.18167,0.171294 -45.7327,36.569655 -49.90329,39.876111 -3.82629,3.03349 -6.00576,4.6887 -6.17378,4.6887 -0.0762,0 -1.77104,-1.29578 -3.766342,-2.8795 z"
           id="path51"
           transform="matrix(1.010147,0,0,0.99690661,2.5654086,1.8596346)" /></g></g><path
       style="fill:#000000;fill-opacity:0.29749891;stroke:none;stroke-width:0.4;stroke-linecap:round;stroke-linejoin:round;stroke-miterlimit:0;stroke-opacity:0.984447"
       d="m 105.81821,215.15304 61.06126,-41.24033 -0.31969,-9.59077"
       id="path11"
       inkscape:path-effect="#path-effect16"
       inkscape:original-d="m 105.81821,215.15304 61.06126,-41.24033 -0.31969,-9.59077"
       transform="translate(-1.9181554,1.2787705)" /></g></svg>
